<svg id="Layer_5" enable-background="new 0 0 64 64" height="512" viewBox="0 0 64 64" width="512" xmlns="http://www.w3.org/2000/svg"><circle cx="38" cy="23" r="1"/><circle cx="26" cy="23" r="1"/><path d="m36 32h-2c0 1.103-.897 2-2 2s-2-.897-2-2h-2c0 2.206 1.794 4 4 4s4-1.794 4-4z"/><path d="m49.123 47.288-10.259-4.197c-1.132-.463-1.864-1.553-1.864-2.777v-.718c3.077-2.126 5.427-5.126 6.759-8.596h.241c2.757 0 5-2.243 5-5v-7.671c0-1.75.869-3.373 2.323-4.343l1.046-.696-2.6-4.086c-3.269-5.137-8.856-8.204-14.945-8.204h-.221c-5.581 0-10.856 2.65-14.19 7.109-3.16.817-5.413 3.695-5.413 6.99v10.901c0 2.757 2.243 5 5 5h.241c1.332 3.471 3.682 6.47 6.759 8.596v.718c0 1.224-.732 2.313-1.864 2.776l-10.259 4.197c-6 2.456-9.877 8.231-9.877 14.713v1h54v-1c0-6.482-3.877-12.257-9.877-14.712zm-8.123 13.712h-18v-4h18zm-10.362-13.053-2.011 2.011-2.153-5.306c.301-.171.576-.371.83-.595zm3.918 4.024-1.23 3.029h-2.653l-1.23-3.029 2.557-2.556zm2.14-7.913c.254.224.529.424.83.595l-2.153 5.306-2.011-2.011zm-8.181 10.942h-1.857l-3.799-8.816 1.782-.729zm6.97 0 3.874-9.545 1.782.729-3.799 8.816zm8.929-26.042c.379-1.482.586-3.025.586-4.607v-.351c0-.288-.038-.567-.085-.842 1.205.389 2.085 1.509 2.085 2.842 0 1.512-1.129 2.754-2.586 2.958zm-23.218-18.978.388-.077.229-.322c2.944-4.121 7.725-6.581 12.79-6.581h.221c5.402 0 10.358 2.721 13.259 7.278l1.566 2.461c-1.67 1.365-2.649 3.407-2.649 5.59v3.696c-.838-.634-1.87-1.025-3-1.025v.031c-.912-1.225-2.359-2.031-4-2.031h-.418c-4.896 0-9.659-.978-14.15-2.902l-.504-.221-5.928 3.557v1.667c-.743.152-1.416.482-2 .924v-6.927c0-2.479 1.765-4.631 4.196-5.118zm-4.196 16.02c0-1.302.839-2.402 2-2.816v1.166c0 1.582.207 3.126.586 4.608-1.457-.204-2.586-1.446-2.586-2.958zm4-1.649v-3.784l4.079-2.447c4.618 1.911 9.495 2.88 14.503 2.88h.418c1.654 0 3 1.346 3 3v.351c0 7.023-4.406 13.247-11 15.592-6.594-2.345-11-8.569-11-15.592zm10.684 17.597.316.106.316-.105c.947-.316 1.855-.702 2.719-1.152.055.571.196 1.12.43 1.625l-3.465 4.042-3.466-4.044c.234-.505.375-1.053.43-1.624.864.45 1.773.837 2.72 1.152zm-16.05 7.192 5.374-2.198 3.472 8.058h-3.48v6h-4v-6h-2v6h-7.965c.373-5.255 3.665-9.842 8.599-11.86zm33.366 11.86v-6h-2v6h-4v-6h-3.48l3.473-8.059 5.374 2.198c4.934 2.019 8.226 6.605 8.599 11.86h-7.966z"/><path d="m27.046 9.765-1.289-1.529c-.761.642-1.453 1.367-2.057 2.157l1.59 1.215c.515-.675 1.106-1.296 1.756-1.843z"/><path d="m34.603 7 .381.001.033-2-.414-.001c-2.614 0-5.166.746-7.378 2.157l1.075 1.686c1.89-1.205 4.07-1.843 6.303-1.843z"/></svg>